<?xml version="1.0" encoding="utf-8"?>
<!-- Generator: Adobe Illustrator 26.4.1, SVG Export Plug-In . SVG Version: 6.00 Build 0)  -->
<svg version="1.0" id="katman_1" xmlns="http://www.w3.org/2000/svg" xmlns:xlink="http://www.w3.org/1999/xlink" x="0px" y="0px"
	 viewBox="0 0 584.09 674.45" style="enable-background:new 0 0 584.09 674.45;" xml:space="preserve">
<style type="text/css">
	.st0{fill:#020304;}
	.st1{fill:#010202;}
</style>
<path class="st0" d="M292.05,674.45l-2.63-1.52L0,505.84V168.61L292.05,0l2.63,1.52l289.41,167.09v337.22L292.05,674.45z
	 M10.54,499.75l281.51,162.53l281.51-162.53V174.7L292.05,12.17L10.54,174.7V499.75z"/>
<path class="st0" d="M292.05,632.3l-2.63-1.52L36.51,484.76V189.69L292.05,42.15l255.54,147.54v295.07L292.05,632.3z M47.04,478.68
	l245,141.45l245-141.45v-282.9l-245-141.45l-245,141.45V478.68z"/>
<path class="st0" d="M292.05,590.14L73.01,463.68V210.77L292.05,84.31l219.03,126.46v252.92L292.05,590.14z M83.55,457.6
	l208.5,120.38l208.5-120.38V216.85L292.05,96.48L83.55,216.85V457.6z"/>
<path class="st0" d="M292.05,547.99L109.52,442.61V231.84l182.53-105.38l182.53,105.38v210.76L292.05,547.99z M120.06,436.52
	l171.99,99.3l171.99-99.3v-198.6l-171.99-99.3l-171.99,99.3V436.52z"/>
<path class="st0" d="M292.05,505.84l-146.02-84.31V252.92l146.02-84.31l146.02,84.31v168.61L292.05,505.84z M156.56,415.45
	l135.48,78.22l135.48-78.22V259l-135.48-78.22L156.56,259V415.45z"/>
<g>
	<path class="st1" d="M292.05,210.77L401.56,274v126.46l-109.52,63.23l-109.52-63.23V274L292.05,210.77z"/>
	<path class="st0" d="M292.05,464.26l-0.25-0.14l-109.77-63.37V273.71l0.25-0.14l109.77-63.37l0.25,0.14l109.77,63.37v127.04
		l-0.25,0.14L292.05,464.26z M183.03,400.17l109.02,62.94l109.02-62.94V274.28l-109.02-62.94l-109.02,62.94V400.17z"/>
</g>
</svg>
